<svg xmlns="http://www.w3.org/2000/svg" viewBox="0 0 500 250"><style>text { font-family: &quot;Helvetica Neue&quot;, Helvetica, Arial, sans-serif; font-size: 10px; } text.title { font-size: 15px; } line, rect { stroke: #000; } line { stroke-width: 2; } rect { width: 20px; height: 20px; } rect, line.desc, line.dash { stroke-width: 1; } rect.rogue, line.dash { stroke-dasharray: 2, 2; } rect.bg { stroke-width: 0; fill: #FFF; width: 100%; height: 100%; } g.free &gt; rect { fill: #CCC; } g.used &gt; rect { fill: #6E6; } g.heap &gt; rect { fill: #6CF; } g.data &gt; rect { fill: #F80; } g.text &gt; rect { fill: #FF0; width: 10px; } g.uaf &gt; rect { fill: #D6D !important; } rect.free { fill: #CCC !important; } rect.used { fill: #6E6 !important; } rect.heap { fill: #6CF !important; } rect.data { fill: #F80 !important; } rect.text { fill: #FF0 !important; } rect.uaf { fill: #D6D !important; } rect.rogue { fill: none !important; }</style><defs><marker id="arrow" markerHeight="10" markerUnits="userSpaceOnUse" markerWidth="10" orient="auto" refX="0" refY="3"><path fill="#000" d="M0,0 L0,6 L9,3"/></marker></defs><rect x="0" y="0" class="bg"/><text x="50%" y="30" class="title" text-anchor="middle">Reference to freelist node</text><rect x="20" y="30" class="free"/><text x="45" y="44">8 bytes</text><text x="25%" y="65" text-anchor="middle">freelist head</text><text x="75%" y="65" text-anchor="middle">objsArray entry</text><line x1="100" x2="93" y1="68" y2="82" marker-end="url(#arrow)"/><g class="free" transform="translate(80 90)"><rect x="0" y="0"/><rect x="20" y="0"/><rect x="40" y="0"/><rect x="60" y="0"/></g><line x1="90" x2="73" y1="110" y2="142" marker-end="url(#arrow)"/><g class="free" transform="translate(60 150)"><rect x="0" y="0"/><rect x="20" y="0"/><rect x="40" y="0"/><rect x="60" y="0"/></g><line x1="70" x2="104" y1="170" y2="204" marker-end="url(#arrow)"/><g class="free" transform="translate(100 210)"><rect x="0" y="0"/><rect x="20" y="0"/><rect x="40" y="0"/><rect x="60" y="0"/></g><text x="75%" y="65" text-anchor="middle">objsArray entry</text><g><text x="0" y="0" text-anchor="middle" transform="translate(248 65)"><tspan x="0" dy="1.2em">interpreted as</tspan> <tspan x="0" dy="1.2em">vtable pointer</tspan></text></g><line x1="340" x2="316" y1="68" y2="85" marker-end="url(#arrow)"/><line x1="111" x2="292" y1="210" y2="104" marker-end="url(#arrow)"/><line x1="280" x2="300" y1="80" y2="95" class="desc"/><g class="free" transform="translate(300 90)"><rect x="0" y="0"/><rect x="20" y="0"/><rect x="40" y="0"/><rect x="60" y="0"/></g><g><text x="0" y="0" text-anchor="start" transform="translate(350 125)"><tspan x="0" dy="1.2em">interpreted as</tspan> <tspan x="0" dy="1.2em">-&gt;retain() pointer</tspan></text></g><line x1="310" x2="275" y1="110" y2="163" marker-end="url(#arrow)"/><line x1="370" x2="350" y1="150" y2="170" class="desc"/><g class="free" transform="translate(260 170)"><rect x="0" y="0"/><rect x="20" y="0"/><rect x="40" y="0"/><rect x="60" y="0"/><rect x="80" y="0" class="rogue" style="width:80px"/><line x1="100" x2="100" y1="0" y2="20" class="dash"/><line x1="120" x2="120" y1="0" y2="20" class="dash"/><line x1="140" x2="140" y1="0" y2="20" class="dash"/></g></svg>